<svg width="480" height="416" viewBox="0 0 480 416" fill="none" xmlns="http://www.w3.org/2000/svg">
	<path
		d="M441.738 122.1C438.184 120.702 434.397 119.989 430.578 120H430.178C410.008 120.3 387.388 139.19 375.518 167.76C361.288 201.94 367.838 236.91 390.258 245.9C393.809 247.298 397.592 248.01 401.408 248C421.678 248 444.608 229 456.578 200.24C470.708 166.06 464.058 131.09 441.738 122.1ZM311.598 255.48C283.798 209.35 271.798 192 239.998 192C208.198 192 196.098 209.46 168.298 255.48C144.498 294.84 96.3982 298.12 84.3982 331.55C81.9637 337.673 80.7411 344.211 80.7982 350.8C80.7982 377.99 101.598 400 127.198 400C158.998 400 202.298 374.61 240.098 374.61C277.898 374.61 320.998 400 352.798 400C378.398 400 399.098 378 399.098 350.8C399.121 344.204 397.865 337.667 395.398 331.55C383.398 298 335.398 294.84 311.598 255.48ZM176.508 148C177.847 148.001 179.184 147.901 180.508 147.7C203.718 144.33 218.208 112.17 212.948 75.85C207.998 41.61 187.218 16 165.488 16C164.149 15.9989 162.812 16.0992 161.488 16.3C138.278 19.67 123.788 51.83 129.048 88.15C133.998 122.29 154.778 148 176.508 148ZM350.918 88.15C356.178 51.83 341.688 19.67 318.478 16.3C317.154 16.0992 315.817 15.9989 314.478 16C292.748 16 272.008 41.61 267.048 75.85C261.788 112.17 276.278 144.33 299.488 147.7C300.812 147.901 302.149 148.001 303.488 148C325.218 148 345.998 122.29 350.918 88.15ZM89.7682 245.9C112.158 236.9 118.698 201.9 104.488 167.76C92.5282 139 69.6182 120 49.3782 120C45.5622 119.99 41.7789 120.702 38.2282 122.1C15.8382 131.1 9.29817 166.1 23.5082 200.24C35.4682 229 58.3782 248 78.6182 248C82.4341 248.01 86.2175 247.298 89.7682 245.9Z"
		stroke="black" stroke-width="32" stroke-miterlimit="10" />
</svg>